<svg xmlns="http://www.w3.org/2000/svg" fill="none" viewBox="0 0 25 25"><path fill="#1E2A3C" d="M20.672 0H2.953C1.323 0 0 1.353 0 3.021v18.127c0 1.668 1.322 3.02 2.953 3.02h17.72c1.63 0 2.952-1.352 2.952-3.02V3.02C23.625 1.353 22.303 0 20.672 0"/><path fill="#8699B7" fill-rule="evenodd" d="M14.577 8.658c-.503.067-2.475-1.208-6.244-3.257-3.283-1.812-2.392.762-2.096 1.463.03.102.03.211 0 .314-.124.501-.201 2.417 3.626 6.574a.4.4 0 0 1 .1.526l-.047.066c-.49.864 5.05-6.006 4.66-5.686" clip-rule="evenodd"/><path fill="#54718A" fill-rule="evenodd" d="M14.577 8.659c-.485-.109-.632-.218-2.363-4.23-1.27-3.02-2.498-.157-2.469.605a.48.48 0 0 1-.082.296c-.29.429-1.772 2.785.342 8.078.088.289.071.6-.047.876l-.047.067c-.485.858 5.055-6.012 4.666-5.692" clip-rule="evenodd"/><path fill="#9FBED1" fill-rule="evenodd" d="M14.577 8.658c-.455.06-2.12-.967-5.228-2.695-.454 1.057-.95 3.383.685 7.438.091.286.074.596-.047.87l-.041.072c-.532.858 5.014-6.006 4.63-5.685" clip-rule="evenodd"/><path fill="#FAFAFA" fill-rule="evenodd" d="M18.895 8.055c-.538-.049-.969-.973-1.902-.973-.933 0-2.026 1.257-2.41 1.577-.59.357-3.544.38-7.962.7-3.904.279-2.445 1.354-1.996 1.632a.148.148 0 0 1 .083.163c-.036.327.484 1.77 5.073 2.732.431.09.166.459.166.459-.52.864-2.268 3.873-2.824 6.531-.118.538.402-.797 2.546-2.658 2.144-1.861 4.288-1.535 6.196-4.085 1.908-2.55.974-4.32 3.03-4.87l4.725-1.208s-4.672.006-4.725 0" clip-rule="evenodd"/></svg>